<?xml version="1.0" encoding="iso-8859-1"?>
<!-- Generator: Adobe Illustrator 19.0.0, SVG Export Plug-In . SVG Version: 6.00 Build 0)  -->
<svg version="1.1" id="Layer_1" xmlns="http://www.w3.org/2000/svg" xmlns:xlink="http://www.w3.org/1999/xlink" x="0px" y="0px"
	 viewBox="0 0 512 512" style="enable-background:new 0 0 512 512;" xml:space="preserve">
<path style="fill:#CFF09E;" d="M199.886,67.782c-3.798,8.032-5.931,17.008-5.931,26.482c0,34.266,27.778,62.044,62.044,62.044
	s62.044-27.778,62.044-62.044c0-9.475-2.132-18.45-5.931-26.482H199.886z"/>
<path style="fill:#507C5C;" d="M339.23,67.782c0-8.356-6.775-15.133-15.133-15.133h-11.982H199.886h-11.982
	c-8.358,0-15.133,6.776-15.133,15.133c0,5.469,2.912,10.246,7.259,12.905c-0.79,4.448-1.206,8.977-1.206,13.577
	c0,42.555,34.621,77.177,77.177,77.177s77.177-34.622,77.177-77.177c0-4.6-0.416-9.13-1.206-13.577
	C336.318,78.029,339.23,73.251,339.23,67.782z M256,141.176c-25.866,0-46.911-21.044-46.911-46.911c0-3.874,0.462-7.668,1.379-11.35
	h91.066c0.917,3.682,1.379,7.476,1.379,11.35C302.911,120.133,281.866,141.176,256,141.176z"/>
<path style="fill:#CFF09E;" d="M199.886,211.737c-3.798,8.032-5.931,17.008-5.931,26.482c0,34.266,27.778,62.044,62.044,62.044
	s62.044-27.778,62.044-62.044c0-9.475-2.132-18.45-5.931-26.482H199.886z"/>
<g>
	<path style="fill:#507C5C;" d="M339.23,211.737c0-8.356-6.775-15.133-15.133-15.133h-11.982H199.886h-11.982
		c-8.358,0-15.133,6.776-15.133,15.133c0,5.469,2.912,10.246,7.259,12.905c-0.79,4.447-1.206,8.977-1.206,13.577
		c0,42.555,34.621,77.177,77.177,77.177s77.177-34.622,77.177-77.177c0-4.6-0.416-9.13-1.206-13.577
		C336.318,221.983,339.23,217.206,339.23,211.737z M256,285.13c-25.866,0-46.911-21.044-46.911-46.911
		c0-3.874,0.462-7.668,1.379-11.35h91.066c0.917,3.682,1.379,7.476,1.379,11.35C302.911,264.087,281.866,285.13,256,285.13z"/>
	<path style="fill:#507C5C;" d="M339.23,355.691c0-8.356-6.775-15.133-15.133-15.133h-11.982H199.886h-11.982
		c-8.358,0-15.133,6.776-15.133,15.133c0,5.469,2.912,10.246,7.259,12.905c-0.79,4.448-1.206,8.977-1.206,13.577
		c0,42.555,34.621,77.177,77.177,77.177s77.177-34.622,77.177-77.177c0-4.6-0.416-9.13-1.206-13.577
		C336.318,365.938,339.23,361.16,339.23,355.691z M256,429.085c-25.866,0-46.911-21.044-46.911-46.911
		c0-3.874,0.462-7.666,1.38-11.35h91.064c0.917,3.683,1.38,7.476,1.38,11.35C302.911,408.041,281.866,429.085,256,429.085z"/>
	<path style="fill:#507C5C;" d="M394.924,422.46c-8.358,0-15.133,6.776-15.133,15.133v44.142H132.208V67.782
		c0-8.356-6.775-15.133-15.133-15.133c-0.734,0-1.448,0.07-2.155,0.171c-0.705-0.101-1.421-0.171-2.155-0.171H65.818
		c-8.358,0-15.133,6.776-15.133,15.133s6.775,15.133,15.133,15.133h36.125v113.689H65.818c-8.358,0-15.133,6.776-15.133,15.133
		c0,8.356,6.775,15.133,15.133,15.133h36.125v113.689H65.818c-8.358,0-15.133,6.776-15.133,15.133
		c0,8.356,6.775,15.133,15.133,15.133h36.125v126.043c0,8.356,6.775,15.133,15.133,15.133h277.847
		c8.358,0,15.133-6.776,15.133-15.133v-59.275C410.057,429.235,403.282,422.46,394.924,422.46z"/>
	<path style="fill:#507C5C;" d="M446.182,226.87c8.358,0,15.133-6.776,15.133-15.133c0-8.356-6.775-15.133-15.133-15.133h-36.125
		V82.915h36.125c8.358,0,15.133-6.776,15.133-15.133S454.54,52.65,446.182,52.65h-36.125V15.133C410.057,6.776,403.282,0,394.924,0
		H117.076c-8.358,0-15.133,6.776-15.133,15.133s6.775,15.133,15.133,15.133H379.79v325.426c0,8.356,6.775,15.133,15.133,15.133
		c0.734,0,1.448-0.07,2.155-0.171c0.705,0.101,1.421,0.171,2.155,0.171h46.949c8.358,0,15.133-6.776,15.133-15.133
		c0-8.356-6.775-15.133-15.133-15.133h-36.125V226.87H446.182z"/>
</g>
<g>
</g>
<g>
</g>
<g>
</g>
<g>
</g>
<g>
</g>
<g>
</g>
<g>
</g>
<g>
</g>
<g>
</g>
<g>
</g>
<g>
</g>
<g>
</g>
<g>
</g>
<g>
</g>
<g>
</g>
</svg>
