<?xml version="1.0" encoding="iso-8859-1"?>
<!-- Generator: Adobe Illustrator 19.0.0, SVG Export Plug-In . SVG Version: 6.00 Build 0)  -->
<svg version="1.1" id="Layer_1" xmlns="http://www.w3.org/2000/svg" xmlns:xlink="http://www.w3.org/1999/xlink" x="0px" y="0px"
	 viewBox="0 0 512 512" style="enable-background:new 0 0 512 512;" xml:space="preserve">
<path style="fill:#FEE187;" d="M274.338,169.874h-36.677c-15.267,0-27.644-12.377-27.644-27.644V43.017
	c0-15.267,12.377-27.644,27.644-27.644h36.677c15.267,0,27.644,12.377,27.644,27.644v99.214
	C301.982,157.499,289.605,169.874,274.338,169.874z"/>
<g>
	<path style="fill:#FFC61B;" d="M274.338,185.247h-36.675c-23.72,0-43.017-19.298-43.017-43.017V43.017
		C194.645,19.298,213.943,0,237.663,0h36.675c23.72,0,43.017,19.298,43.017,43.017v99.215
		C317.356,165.951,298.059,185.247,274.338,185.247z M237.663,30.746c-6.766,0-12.271,5.505-12.271,12.271v99.215
		c0,6.766,5.505,12.271,12.271,12.271h36.675c6.766,0,12.271-5.505,12.271-12.271V43.017c0-6.766-5.505-12.271-12.271-12.271
		H237.663z"/>
	<path style="fill:#FFC61B;" d="M256,439.89c-95.108,0-172.484-77.377-172.484-172.483c0-18.558,3.002-36.926,8.922-54.588
		c5.431-16.205,13.23-31.502,23.181-45.472c4.927-6.915,14.526-8.526,21.441-3.6c6.915,4.925,8.527,14.524,3.6,21.441
		c-8.189,11.494-14.604,24.079-19.07,37.402c-4.862,14.507-7.328,29.585-7.328,44.817c0,78.154,63.584,141.737,141.738,141.737
		s141.737-63.582,141.737-141.737c0-8.49,6.882-15.373,15.373-15.373c8.49,0,15.373,6.882,15.373,15.373
		C428.484,362.514,351.108,439.89,256,439.89z"/>
	<path style="fill:#FFC61B;" d="M256,512C121.132,512,11.407,402.276,11.407,267.408c0-81.618,40.346-157.465,107.926-202.89
		c7.045-4.738,16.598-2.864,21.335,4.183s2.864,16.598-4.183,21.335c-59.067,39.702-94.331,106.01-94.331,177.371
		c0,117.917,95.932,213.847,213.847,213.847s213.847-95.932,213.847-213.847c0-71.361-35.264-137.671-94.331-177.374
		c-7.045-4.736-8.919-14.288-4.183-21.335c4.736-7.047,14.286-8.921,21.335-4.183c67.579,45.425,107.926,121.272,107.926,202.89
		C500.594,402.276,390.87,512,256,512z"/>
</g>
<g>
</g>
<g>
</g>
<g>
</g>
<g>
</g>
<g>
</g>
<g>
</g>
<g>
</g>
<g>
</g>
<g>
</g>
<g>
</g>
<g>
</g>
<g>
</g>
<g>
</g>
<g>
</g>
<g>
</g>
</svg>
